<svg xmlns="http://www.w3.org/2000/svg" viewBox="0 0 107.91 106.87"><defs><style>.cls-1{fill:#39673b;}.cls-2{fill:#62805d;}.cls-3{fill:#8fa187;}.cls-4{fill:#c4ccbf;}</style></defs><g id="Layer_2" data-name="Layer 2"><g id="Layer_1-2" data-name="Layer 1"><path class="cls-1" d="M0,53a54,54,0,0,0,107.91-.06c0-.14,0-.29,0-.43C87.77,68.37,66,69.74,43.72,56.71c-12.61-7.38-26-10.19-40.28-4.93C2.3,52.2,1.15,52.59,0,53Z"/><path class="cls-2" d="M107.91,53.2c0-1.58-.09-3.15-.24-4.7C93.23,45.53,81.59,37,69.25,29.24,54,19.65,38.12,22.83,23.3,32c-7,4.34-14.16,8.13-22,10A54.11,54.11,0,0,0,0,53.63s0,0,0,.06c1.15-.37,2.3-.77,3.43-1.18,14.33-5.27,27.68-2.46,40.28,4.92C66,70.46,87.78,69.09,107.91,53.2Z"/><path class="cls-3" d="M107.9,49.07A54.36,54.36,0,0,0,91.33,14.85c-15.89,5.89-31.62,8.31-47-5.2-4.6-4-10.45-3.54-16.17-3.31A54.53,54.53,0,0,0,.93,42.54c7.91-1.89,15.13-5.71,22.15-10.09C38,23.16,54,20,69.28,29.64,81.68,37.47,93.39,46.08,107.9,49.07Z"/><path class="cls-4" d="M91.66,14.91A55.88,55.88,0,0,0,27.54,6.48c5.79-.23,11.73-.71,16.4,3.28C59.59,23.15,75.54,20.75,91.66,14.91Z"/></g></g></svg>