<svg id="visual" viewBox="0 0 960 300" width="960" height="300" xmlns="http://www.w3.org/2000/svg" xmlns:xlink="http://www.w3.org/1999/xlink" version="1.1"><rect x="0" y="0" width="960" height="300" fill="#f8f8f8"></rect><path d="M0 198L22.8 204.3C45.7 210.7 91.3 223.3 137 225.7C182.7 228 228.3 220 274 218.5C319.7 217 365.3 222 411.2 221.3C457 220.7 503 214.3 548.8 212.2C594.7 210 640.3 212 686 217C731.7 222 777.3 230 823 231.3C868.7 232.7 914.3 227.3 937.2 224.7L960 222L960 0L937.2 0C914.3 0 868.7 0 823 0C777.3 0 731.7 0 686 0C640.3 0 594.7 0 548.8 0C503 0 457 0 411.2 0C365.3 0 319.7 0 274 0C228.3 0 182.7 0 137 0C91.3 0 45.7 0 22.8 0L0 0Z" fill="#395e42"></path><path d="M0 195L22.8 193.2C45.7 191.3 91.3 187.7 137 187.8C182.7 188 228.3 192 274 195.2C319.7 198.3 365.3 200.7 411.2 198C457 195.3 503 187.7 548.8 188.7C594.7 189.7 640.3 199.3 686 201.3C731.7 203.3 777.3 197.7 823 191.7C868.7 185.7 914.3 179.3 937.2 176.2L960 173L960 0L937.2 0C914.3 0 868.7 0 823 0C777.3 0 731.7 0 686 0C640.3 0 594.7 0 548.8 0C503 0 457 0 411.2 0C365.3 0 319.7 0 274 0C228.3 0 182.7 0 137 0C91.3 0 45.7 0 22.8 0L0 0Z" fill="#577c60"></path><path d="M0 110L22.8 117.2C45.7 124.3 91.3 138.7 137 138.2C182.7 137.7 228.3 122.3 274 119.7C319.7 117 365.3 127 411.2 132.3C457 137.7 503 138.3 548.8 137.7C594.7 137 640.3 135 686 132.2C731.7 129.3 777.3 125.7 823 122.5C868.7 119.3 914.3 116.7 937.2 115.3L960 114L960 0L937.2 0C914.3 0 868.7 0 823 0C777.3 0 731.7 0 686 0C640.3 0 594.7 0 548.8 0C503 0 457 0 411.2 0C365.3 0 319.7 0 274 0C228.3 0 182.7 0 137 0C91.3 0 45.7 0 22.8 0L0 0Z" fill="#769c7f"></path><path d="M0 67L22.8 75.3C45.7 83.7 91.3 100.3 137 107.3C182.7 114.3 228.3 111.7 274 104.5C319.7 97.3 365.3 85.7 411.2 81.2C457 76.7 503 79.3 548.8 85.2C594.7 91 640.3 100 686 97.8C731.7 95.7 777.3 82.3 823 78.3C868.7 74.3 914.3 79.7 937.2 82.3L960 85L960 0L937.2 0C914.3 0 868.7 0 823 0C777.3 0 731.7 0 686 0C640.3 0 594.7 0 548.8 0C503 0 457 0 411.2 0C365.3 0 319.7 0 274 0C228.3 0 182.7 0 137 0C91.3 0 45.7 0 22.8 0L0 0Z" fill="#96bca0"></path><path d="M0 68L22.8 68.8C45.7 69.7 91.3 71.3 137 71.8C182.7 72.3 228.3 71.7 274 71.5C319.7 71.3 365.3 71.7 411.2 65.5C457 59.3 503 46.7 548.8 46.7C594.7 46.7 640.3 59.3 686 65.5C731.7 71.7 777.3 71.3 823 69.7C868.7 68 914.3 65 937.2 63.5L960 62L960 0L937.2 0C914.3 0 868.7 0 823 0C777.3 0 731.7 0 686 0C640.3 0 594.7 0 548.8 0C503 0 457 0 411.2 0C365.3 0 319.7 0 274 0C228.3 0 182.7 0 137 0C91.3 0 45.7 0 22.8 0L0 0Z" fill="#b8dec2"></path></svg>