<svg id="visual" viewBox="0 0 960 50" width="960" height="50" xmlns="http://www.w3.org/2000/svg" xmlns:xlink="http://www.w3.org/1999/xlink" version="1.1"><rect x="0" y="0" width="960" height="50" fill="#f8f8f8"></rect><path d="M0 16L13.3 16.2C26.7 16.3 53.3 16.7 80 17.3C106.7 18 133.3 19 160 21.5C186.7 24 213.3 28 240 26.8C266.7 25.7 293.3 19.3 320 17.3C346.7 15.3 373.3 17.7 400 19.3C426.7 21 453.3 22 480 21C506.7 20 533.3 17 560 17.5C586.7 18 613.3 22 640 25.2C666.7 28.3 693.3 30.7 720 32C746.7 33.3 773.3 33.7 800 33.7C826.7 33.7 853.3 33.3 880 32.8C906.7 32.3 933.3 31.7 946.7 31.3L960 31L960 0L946.7 0C933.3 0 906.7 0 880 0C853.3 0 826.7 0 800 0C773.3 0 746.7 0 720 0C693.3 0 666.7 0 640 0C613.3 0 586.7 0 560 0C533.3 0 506.7 0 480 0C453.3 0 426.7 0 400 0C373.3 0 346.7 0 320 0C293.3 0 266.7 0 240 0C213.3 0 186.7 0 160 0C133.3 0 106.7 0 80 0C53.3 0 26.7 0 13.3 0L0 0Z" fill="#b8dec2" stroke-linecap="round" stroke-linejoin="miter"></path></svg>