<svg id="visual" viewBox="0 0 960 50" width="960" height="50" xmlns="http://www.w3.org/2000/svg" xmlns:xlink="http://www.w3.org/1999/xlink" version="1.1"><rect x="0" y="0" width="960" height="50" fill="#f8f8f8"></rect><path d="M0 25L13.3 26.5C26.7 28 53.3 31 80 32.3C106.7 33.7 133.3 33.3 160 33.3C186.7 33.3 213.3 33.7 240 33C266.7 32.3 293.3 30.7 320 27.3C346.7 24 373.3 19 400 16.2C426.7 13.3 453.3 12.7 480 15C506.7 17.3 533.3 22.7 560 25.8C586.7 29 613.3 30 640 28.3C666.7 26.7 693.3 22.3 720 22.7C746.7 23 773.3 28 800 29C826.7 30 853.3 27 880 25.2C906.7 23.3 933.3 22.7 946.7 22.3L960 22L960 51L946.7 51C933.3 51 906.7 51 880 51C853.3 51 826.7 51 800 51C773.3 51 746.7 51 720 51C693.3 51 666.7 51 640 51C613.3 51 586.7 51 560 51C533.3 51 506.7 51 480 51C453.3 51 426.7 51 400 51C373.3 51 346.7 51 320 51C293.3 51 266.7 51 240 51C213.3 51 186.7 51 160 51C133.3 51 106.7 51 80 51C53.3 51 26.7 51 13.3 51L0 51Z" fill="#b8dec2" stroke-linecap="round" stroke-linejoin="miter"></path></svg>